<mxfile host="app.diagrams.net" modified="2024-04-14T16:58:04.234Z" agent="Mozilla/5.0 (Windows NT 10.0; Win64; x64; rv:124.0) Gecko/20100101 Firefox/124.0" etag="vKkQTOmZszTBSh5BM_j-" version="24.2.5" type="device">
  <diagram name="Page-1" id="Uk5b020VFf32xx-wXYkn">
    <mxGraphModel dx="1034" dy="466" grid="1" gridSize="10" guides="1" tooltips="1" connect="1" arrows="1" fold="1" page="1" pageScale="1" pageWidth="850" pageHeight="1100" math="0" shadow="0">
      <root>
        <mxCell id="0" />
        <mxCell id="1" parent="0" />
        <mxCell id="MTHECDVv07HErPj8eWL1-87" style="edgeStyle=orthogonalEdgeStyle;rounded=0;orthogonalLoop=1;jettySize=auto;html=1;exitX=1;exitY=0.5;exitDx=0;exitDy=0;" edge="1" parent="1" source="MTHECDVv07HErPj8eWL1-1" target="MTHECDVv07HErPj8eWL1-2">
          <mxGeometry relative="1" as="geometry" />
        </mxCell>
        <mxCell id="MTHECDVv07HErPj8eWL1-1" value="&amp;nbsp;32 | 31 | &amp;nbsp; &amp;nbsp; &amp;nbsp; A&amp;nbsp;&amp;nbsp;&amp;nbsp;&amp;nbsp;&amp;nbsp;&amp;nbsp;&amp;nbsp;&amp;nbsp; | 1 | 0" style="rounded=0;whiteSpace=wrap;html=1;" vertex="1" parent="1">
          <mxGeometry x="70" y="100" width="140" height="20" as="geometry" />
        </mxCell>
        <mxCell id="MTHECDVv07HErPj8eWL1-69" style="edgeStyle=orthogonalEdgeStyle;rounded=0;orthogonalLoop=1;jettySize=auto;html=1;exitX=1;exitY=0.5;exitDx=0;exitDy=0;" edge="1" parent="1" source="MTHECDVv07HErPj8eWL1-2" target="MTHECDVv07HErPj8eWL1-68">
          <mxGeometry relative="1" as="geometry" />
        </mxCell>
        <mxCell id="MTHECDVv07HErPj8eWL1-2" value="&amp;nbsp;31 | 30 |&amp;nbsp; &amp;nbsp;&amp;nbsp;&amp;nbsp; Q&amp;nbsp;&amp;nbsp;&amp;nbsp;&amp;nbsp;&amp;nbsp;&amp;nbsp;&amp;nbsp;&amp;nbsp; | 1 | 0" style="rounded=0;whiteSpace=wrap;html=1;" vertex="1" parent="1">
          <mxGeometry x="280" y="100" width="140" height="20" as="geometry" />
        </mxCell>
        <mxCell id="MTHECDVv07HErPj8eWL1-24" style="edgeStyle=orthogonalEdgeStyle;rounded=0;orthogonalLoop=1;jettySize=auto;html=1;exitX=0.5;exitY=1;exitDx=0;exitDy=0;entryX=0.75;entryY=1;entryDx=0;entryDy=0;" edge="1" parent="1" source="MTHECDVv07HErPj8eWL1-3" target="MTHECDVv07HErPj8eWL1-23">
          <mxGeometry relative="1" as="geometry" />
        </mxCell>
        <mxCell id="MTHECDVv07HErPj8eWL1-31" style="edgeStyle=orthogonalEdgeStyle;rounded=0;orthogonalLoop=1;jettySize=auto;html=1;exitX=0.75;exitY=1;exitDx=0;exitDy=0;entryX=0.25;entryY=1;entryDx=0;entryDy=0;" edge="1" parent="1" source="MTHECDVv07HErPj8eWL1-3" target="MTHECDVv07HErPj8eWL1-23">
          <mxGeometry relative="1" as="geometry" />
        </mxCell>
        <mxCell id="MTHECDVv07HErPj8eWL1-3" value="&amp;nbsp;31 | 30 | &amp;nbsp; &amp;nbsp; &amp;nbsp; M&amp;nbsp;&amp;nbsp;&amp;nbsp;&amp;nbsp;&amp;nbsp;&amp;nbsp;&amp;nbsp; | 1 | 0" style="rounded=0;whiteSpace=wrap;html=1;" vertex="1" parent="1">
          <mxGeometry x="550" y="100" width="140" height="20" as="geometry" />
        </mxCell>
        <mxCell id="MTHECDVv07HErPj8eWL1-7" style="edgeStyle=orthogonalEdgeStyle;rounded=0;orthogonalLoop=1;jettySize=auto;html=1;exitX=0.5;exitY=1;exitDx=0;exitDy=0;entryX=0.5;entryY=1;entryDx=0;entryDy=0;" edge="1" parent="1" source="MTHECDVv07HErPj8eWL1-5" target="MTHECDVv07HErPj8eWL1-1">
          <mxGeometry relative="1" as="geometry" />
        </mxCell>
        <mxCell id="MTHECDVv07HErPj8eWL1-5" value="&lt;div&gt;33-bit&amp;nbsp;&lt;/div&gt;&lt;div&gt;ADDER&lt;/div&gt;" style="rounded=0;whiteSpace=wrap;html=1;" vertex="1" parent="1">
          <mxGeometry x="160" y="210" width="120" height="60" as="geometry" />
        </mxCell>
        <mxCell id="MTHECDVv07HErPj8eWL1-6" value="cin" style="text;html=1;align=center;verticalAlign=middle;whiteSpace=wrap;rounded=0;" vertex="1" parent="1">
          <mxGeometry x="260" y="229" width="20" height="20" as="geometry" />
        </mxCell>
        <mxCell id="MTHECDVv07HErPj8eWL1-8" value="" style="endArrow=none;html=1;rounded=0;" edge="1" parent="1">
          <mxGeometry width="50" height="50" relative="1" as="geometry">
            <mxPoint x="217" y="285" as="sourcePoint" />
            <mxPoint x="223" y="280" as="targetPoint" />
          </mxGeometry>
        </mxCell>
        <mxCell id="MTHECDVv07HErPj8eWL1-9" value="&lt;font style=&quot;font-size: 8px;&quot;&gt;33&lt;/font&gt;" style="text;html=1;align=center;verticalAlign=middle;whiteSpace=wrap;rounded=0;" vertex="1" parent="1">
          <mxGeometry x="224" y="276" width="11" height="10" as="geometry" />
        </mxCell>
        <mxCell id="MTHECDVv07HErPj8eWL1-10" value="OUTBUS A" style="shape=step;perimeter=stepPerimeter;whiteSpace=wrap;html=1;fixedSize=1;" vertex="1" parent="1">
          <mxGeometry x="72" y="360" width="320" height="20" as="geometry" />
        </mxCell>
        <mxCell id="MTHECDVv07HErPj8eWL1-11" value="OUTBUS B" style="shape=step;perimeter=stepPerimeter;whiteSpace=wrap;html=1;fixedSize=1;" vertex="1" parent="1">
          <mxGeometry x="389.5" y="360" width="320" height="20" as="geometry" />
        </mxCell>
        <mxCell id="MTHECDVv07HErPj8eWL1-84" style="edgeStyle=orthogonalEdgeStyle;rounded=0;orthogonalLoop=1;jettySize=auto;html=1;exitX=0.794;exitY=1.015;exitDx=0;exitDy=0;entryX=0.5;entryY=1;entryDx=0;entryDy=0;exitPerimeter=0;" edge="1" parent="1" source="MTHECDVv07HErPj8eWL1-13" target="MTHECDVv07HErPj8eWL1-2">
          <mxGeometry relative="1" as="geometry" />
        </mxCell>
        <mxCell id="MTHECDVv07HErPj8eWL1-12" value="INBUS A" style="shape=step;perimeter=stepPerimeter;whiteSpace=wrap;html=1;fixedSize=1;direction=west;" vertex="1" parent="1">
          <mxGeometry x="72" y="400" width="320" height="20" as="geometry" />
        </mxCell>
        <mxCell id="MTHECDVv07HErPj8eWL1-13" value="INBUS B" style="shape=step;perimeter=stepPerimeter;whiteSpace=wrap;html=1;fixedSize=1;direction=west;" vertex="1" parent="1">
          <mxGeometry x="387" y="400" width="322.5" height="20" as="geometry" />
        </mxCell>
        <mxCell id="MTHECDVv07HErPj8eWL1-14" style="edgeStyle=orthogonalEdgeStyle;rounded=0;orthogonalLoop=1;jettySize=auto;html=1;exitX=0.25;exitY=1;exitDx=0;exitDy=0;entryX=0.103;entryY=-0.039;entryDx=0;entryDy=0;entryPerimeter=0;" edge="1" parent="1" source="MTHECDVv07HErPj8eWL1-1" target="MTHECDVv07HErPj8eWL1-10">
          <mxGeometry relative="1" as="geometry" />
        </mxCell>
        <mxCell id="MTHECDVv07HErPj8eWL1-15" value="" style="endArrow=none;html=1;rounded=0;" edge="1" parent="1">
          <mxGeometry width="50" height="50" relative="1" as="geometry">
            <mxPoint x="102" y="319" as="sourcePoint" />
            <mxPoint x="108" y="314" as="targetPoint" />
          </mxGeometry>
        </mxCell>
        <mxCell id="MTHECDVv07HErPj8eWL1-16" value="&lt;font style=&quot;font-size: 8px;&quot;&gt;32&lt;/font&gt;" style="text;html=1;align=center;verticalAlign=middle;whiteSpace=wrap;rounded=0;" vertex="1" parent="1">
          <mxGeometry x="109" y="310" width="11" height="10" as="geometry" />
        </mxCell>
        <mxCell id="MTHECDVv07HErPj8eWL1-17" value="" style="curved=1;endArrow=classic;html=1;rounded=0;entryX=0.25;entryY=0;entryDx=0;entryDy=0;" edge="1" parent="1" target="MTHECDVv07HErPj8eWL1-5">
          <mxGeometry width="50" height="50" relative="1" as="geometry">
            <mxPoint x="105" y="161" as="sourcePoint" />
            <mxPoint x="195" y="201" as="targetPoint" />
            <Array as="points">
              <mxPoint x="105" y="199" />
              <mxPoint x="190" y="190" />
            </Array>
          </mxGeometry>
        </mxCell>
        <mxCell id="MTHECDVv07HErPj8eWL1-18" value="" style="endArrow=none;html=1;rounded=0;" edge="1" parent="1">
          <mxGeometry width="50" height="50" relative="1" as="geometry">
            <mxPoint x="160" y="196" as="sourcePoint" />
            <mxPoint x="166" y="191" as="targetPoint" />
          </mxGeometry>
        </mxCell>
        <mxCell id="MTHECDVv07HErPj8eWL1-19" value="&lt;font style=&quot;font-size: 8px;&quot;&gt;33&lt;/font&gt;" style="text;html=1;align=center;verticalAlign=middle;whiteSpace=wrap;rounded=0;" vertex="1" parent="1">
          <mxGeometry x="160" y="180" width="11" height="10" as="geometry" />
        </mxCell>
        <mxCell id="MTHECDVv07HErPj8eWL1-23" value="&lt;div&gt;0&lt;/div&gt;&lt;div&gt;1&lt;br&gt;&lt;/div&gt;" style="shape=trapezoid;perimeter=trapezoidPerimeter;whiteSpace=wrap;html=1;fixedSize=1;direction=north;" vertex="1" parent="1">
          <mxGeometry x="570" y="160" width="20" height="60" as="geometry" />
        </mxCell>
        <mxCell id="MTHECDVv07HErPj8eWL1-25" value="" style="endArrow=none;html=1;rounded=0;" edge="1" parent="1">
          <mxGeometry width="50" height="50" relative="1" as="geometry">
            <mxPoint x="617" y="133" as="sourcePoint" />
            <mxPoint x="623" y="128" as="targetPoint" />
          </mxGeometry>
        </mxCell>
        <mxCell id="MTHECDVv07HErPj8eWL1-26" value="&lt;font style=&quot;font-size: 8px;&quot;&gt;32&lt;/font&gt;" style="text;html=1;align=center;verticalAlign=middle;whiteSpace=wrap;rounded=0;" vertex="1" parent="1">
          <mxGeometry x="624" y="124" width="11" height="10" as="geometry" />
        </mxCell>
        <mxCell id="MTHECDVv07HErPj8eWL1-28" value="" style="curved=1;endArrow=line;html=1;rounded=0;exitX=0.091;exitY=1.012;exitDx=0;exitDy=0;exitPerimeter=0;" edge="1" parent="1" source="MTHECDVv07HErPj8eWL1-3">
          <mxGeometry width="50" height="50" relative="1" as="geometry">
            <mxPoint x="530" y="180" as="sourcePoint" />
            <mxPoint x="620" y="160" as="targetPoint" />
            <Array as="points">
              <mxPoint x="560" y="140" />
              <mxPoint x="620" y="140" />
            </Array>
          </mxGeometry>
        </mxCell>
        <mxCell id="MTHECDVv07HErPj8eWL1-29" value="" style="endArrow=none;html=1;rounded=0;" edge="1" parent="1">
          <mxGeometry width="50" height="50" relative="1" as="geometry">
            <mxPoint x="617" y="169" as="sourcePoint" />
            <mxPoint x="623" y="164" as="targetPoint" />
          </mxGeometry>
        </mxCell>
        <mxCell id="MTHECDVv07HErPj8eWL1-30" value="&lt;font style=&quot;font-size: 8px;&quot;&gt;33&lt;/font&gt;" style="text;html=1;align=center;verticalAlign=middle;whiteSpace=wrap;rounded=0;" vertex="1" parent="1">
          <mxGeometry x="624" y="160" width="11" height="10" as="geometry" />
        </mxCell>
        <mxCell id="MTHECDVv07HErPj8eWL1-32" value="" style="endArrow=none;html=1;rounded=0;" edge="1" parent="1">
          <mxGeometry width="50" height="50" relative="1" as="geometry">
            <mxPoint x="652" y="134" as="sourcePoint" />
            <mxPoint x="658" y="129" as="targetPoint" />
          </mxGeometry>
        </mxCell>
        <mxCell id="MTHECDVv07HErPj8eWL1-33" value="&lt;font style=&quot;font-size: 8px;&quot;&gt;32&lt;/font&gt;" style="text;html=1;align=center;verticalAlign=middle;whiteSpace=wrap;rounded=0;" vertex="1" parent="1">
          <mxGeometry x="659" y="125" width="11" height="10" as="geometry" />
        </mxCell>
        <mxCell id="MTHECDVv07HErPj8eWL1-34" value="" style="curved=1;endArrow=classic;html=1;rounded=0;" edge="1" parent="1">
          <mxGeometry width="50" height="50" relative="1" as="geometry">
            <mxPoint x="680" y="220" as="sourcePoint" />
            <mxPoint x="649" y="205" as="targetPoint" />
            <Array as="points">
              <mxPoint x="679" y="205" />
            </Array>
          </mxGeometry>
        </mxCell>
        <mxCell id="MTHECDVv07HErPj8eWL1-35" value="&#39;0&#39;" style="text;html=1;align=center;verticalAlign=middle;whiteSpace=wrap;rounded=0;" vertex="1" parent="1">
          <mxGeometry x="670" y="221" width="20" height="10" as="geometry" />
        </mxCell>
        <mxCell id="MTHECDVv07HErPj8eWL1-36" value="" style="endArrow=none;html=1;rounded=0;" edge="1" parent="1">
          <mxGeometry width="50" height="50" relative="1" as="geometry">
            <mxPoint x="620.5" y="208" as="sourcePoint" />
            <mxPoint x="626.5" y="203" as="targetPoint" />
          </mxGeometry>
        </mxCell>
        <mxCell id="MTHECDVv07HErPj8eWL1-37" value="&lt;font style=&quot;font-size: 8px;&quot;&gt;33&lt;/font&gt;" style="text;html=1;align=center;verticalAlign=middle;whiteSpace=wrap;rounded=0;" vertex="1" parent="1">
          <mxGeometry x="618.5" y="205" width="11" height="10" as="geometry" />
        </mxCell>
        <mxCell id="MTHECDVv07HErPj8eWL1-50" style="edgeStyle=orthogonalEdgeStyle;rounded=0;orthogonalLoop=1;jettySize=auto;html=1;exitX=1;exitY=0.5;exitDx=0;exitDy=0;exitPerimeter=0;entryX=0.75;entryY=0;entryDx=0;entryDy=0;" edge="1" parent="1" source="MTHECDVv07HErPj8eWL1-38" target="MTHECDVv07HErPj8eWL1-5">
          <mxGeometry relative="1" as="geometry">
            <Array as="points">
              <mxPoint x="379" y="196" />
              <mxPoint x="250" y="196" />
            </Array>
          </mxGeometry>
        </mxCell>
        <mxCell id="MTHECDVv07HErPj8eWL1-38" value="" style="shape=xor;whiteSpace=wrap;html=1;direction=west;" vertex="1" parent="1">
          <mxGeometry x="478.25" y="180" width="30" height="31" as="geometry" />
        </mxCell>
        <mxCell id="MTHECDVv07HErPj8eWL1-40" value="" style="verticalLabelPosition=bottom;verticalAlign=top;html=1;shape=mxgraph.basic.arc;startAngle=0.6775684567112534;endAngle=0.8315493153966425;" vertex="1" parent="1">
          <mxGeometry x="505.25" y="161" width="141.5" height="70" as="geometry" />
        </mxCell>
        <mxCell id="MTHECDVv07HErPj8eWL1-42" value="" style="endArrow=classic;html=1;rounded=0;exitX=0.5;exitY=0;exitDx=0;exitDy=0;entryX=0.014;entryY=0.406;entryDx=0;entryDy=0;entryPerimeter=0;" edge="1" parent="1" source="MTHECDVv07HErPj8eWL1-23" target="MTHECDVv07HErPj8eWL1-40">
          <mxGeometry width="50" height="50" relative="1" as="geometry">
            <mxPoint x="530" y="230" as="sourcePoint" />
            <mxPoint x="580" y="180" as="targetPoint" />
          </mxGeometry>
        </mxCell>
        <mxCell id="MTHECDVv07HErPj8eWL1-48" value="" style="endArrow=none;html=1;rounded=0;" edge="1" parent="1">
          <mxGeometry width="50" height="50" relative="1" as="geometry">
            <mxPoint x="532" y="192" as="sourcePoint" />
            <mxPoint x="538" y="187" as="targetPoint" />
          </mxGeometry>
        </mxCell>
        <mxCell id="MTHECDVv07HErPj8eWL1-49" value="&lt;font style=&quot;font-size: 8px;&quot;&gt;33&lt;/font&gt;" style="text;html=1;align=center;verticalAlign=middle;whiteSpace=wrap;rounded=0;" vertex="1" parent="1">
          <mxGeometry x="532" y="176" width="11" height="10" as="geometry" />
        </mxCell>
        <mxCell id="MTHECDVv07HErPj8eWL1-51" value="" style="endArrow=none;html=1;rounded=0;" edge="1" parent="1">
          <mxGeometry width="50" height="50" relative="1" as="geometry">
            <mxPoint x="258.5" y="198" as="sourcePoint" />
            <mxPoint x="264.5" y="193" as="targetPoint" />
          </mxGeometry>
        </mxCell>
        <mxCell id="MTHECDVv07HErPj8eWL1-52" value="&lt;font style=&quot;font-size: 8px;&quot;&gt;33&lt;/font&gt;" style="text;html=1;align=center;verticalAlign=middle;whiteSpace=wrap;rounded=0;" vertex="1" parent="1">
          <mxGeometry x="258.5" y="182" width="11" height="10" as="geometry" />
        </mxCell>
        <mxCell id="MTHECDVv07HErPj8eWL1-55" style="edgeStyle=orthogonalEdgeStyle;rounded=0;orthogonalLoop=1;jettySize=auto;html=1;exitX=1;exitY=0.25;exitDx=0;exitDy=0;" edge="1" parent="1">
          <mxGeometry relative="1" as="geometry">
            <mxPoint x="480.0000000000001" y="458.6521739130435" as="targetPoint" />
            <mxPoint x="449.9999999999999" y="458.5" as="sourcePoint" />
          </mxGeometry>
        </mxCell>
        <mxCell id="MTHECDVv07HErPj8eWL1-56" value="c0" style="edgeLabel;html=1;align=center;verticalAlign=middle;resizable=0;points=[];" vertex="1" connectable="0" parent="MTHECDVv07HErPj8eWL1-55">
          <mxGeometry x="0.585" y="-1" relative="1" as="geometry">
            <mxPoint x="12" y="-3" as="offset" />
          </mxGeometry>
        </mxCell>
        <mxCell id="MTHECDVv07HErPj8eWL1-61" style="edgeStyle=orthogonalEdgeStyle;rounded=0;orthogonalLoop=1;jettySize=auto;html=1;exitX=1;exitY=0.75;exitDx=0;exitDy=0;entryX=0.007;entryY=0.566;entryDx=0;entryDy=0;entryPerimeter=0;" edge="1" parent="1" source="MTHECDVv07HErPj8eWL1-54" target="MTHECDVv07HErPj8eWL1-40">
          <mxGeometry relative="1" as="geometry">
            <mxPoint x="530" y="200" as="targetPoint" />
            <Array as="points">
              <mxPoint x="530" y="487" />
              <mxPoint x="530" y="201" />
            </Array>
          </mxGeometry>
        </mxCell>
        <mxCell id="MTHECDVv07HErPj8eWL1-114" style="edgeStyle=orthogonalEdgeStyle;rounded=0;orthogonalLoop=1;jettySize=auto;html=1;exitX=0;exitY=1;exitDx=0;exitDy=0;" edge="1" parent="1">
          <mxGeometry relative="1" as="geometry">
            <mxPoint x="320" y="497" as="targetPoint" />
            <mxPoint x="340" y="497" as="sourcePoint" />
          </mxGeometry>
        </mxCell>
        <mxCell id="MTHECDVv07HErPj8eWL1-115" value="fin" style="edgeLabel;html=1;align=center;verticalAlign=middle;resizable=0;points=[];" vertex="1" connectable="0" parent="MTHECDVv07HErPj8eWL1-114">
          <mxGeometry x="0.5333" relative="1" as="geometry">
            <mxPoint x="-12" y="-2" as="offset" />
          </mxGeometry>
        </mxCell>
        <mxCell id="MTHECDVv07HErPj8eWL1-54" value="&lt;div&gt;CONTROL&lt;/div&gt;&lt;div&gt;&amp;nbsp;UNIT&lt;/div&gt;" style="rounded=0;whiteSpace=wrap;html=1;" vertex="1" parent="1">
          <mxGeometry x="340" y="450" width="110" height="50" as="geometry" />
        </mxCell>
        <mxCell id="MTHECDVv07HErPj8eWL1-57" style="edgeStyle=orthogonalEdgeStyle;rounded=0;orthogonalLoop=1;jettySize=auto;html=1;exitX=1;exitY=0.25;exitDx=0;exitDy=0;" edge="1" parent="1">
          <mxGeometry relative="1" as="geometry">
            <mxPoint x="480.0000000000001" y="474.6521739130435" as="targetPoint" />
            <mxPoint x="449.9999999999999" y="474.5" as="sourcePoint" />
          </mxGeometry>
        </mxCell>
        <mxCell id="MTHECDVv07HErPj8eWL1-58" value="c2" style="edgeLabel;html=1;align=center;verticalAlign=middle;resizable=0;points=[];" vertex="1" connectable="0" parent="MTHECDVv07HErPj8eWL1-57">
          <mxGeometry x="0.585" y="-1" relative="1" as="geometry">
            <mxPoint x="12" y="-3" as="offset" />
          </mxGeometry>
        </mxCell>
        <mxCell id="MTHECDVv07HErPj8eWL1-62" value="" style="endArrow=classic;html=1;rounded=0;entryX=1;entryY=0.5;entryDx=0;entryDy=0;" edge="1" parent="1" target="MTHECDVv07HErPj8eWL1-5">
          <mxGeometry width="50" height="50" relative="1" as="geometry">
            <mxPoint x="530" y="239.89" as="sourcePoint" />
            <mxPoint x="290" y="239.89" as="targetPoint" />
          </mxGeometry>
        </mxCell>
        <mxCell id="MTHECDVv07HErPj8eWL1-63" value="" style="endArrow=classic;html=1;rounded=0;" edge="1" parent="1">
          <mxGeometry width="50" height="50" relative="1" as="geometry">
            <mxPoint x="550" y="280" as="sourcePoint" />
            <mxPoint x="530" y="280" as="targetPoint" />
          </mxGeometry>
        </mxCell>
        <mxCell id="MTHECDVv07HErPj8eWL1-64" value="c3" style="edgeLabel;html=1;align=center;verticalAlign=middle;resizable=0;points=[];" vertex="1" connectable="0" parent="MTHECDVv07HErPj8eWL1-63">
          <mxGeometry x="-0.7869" relative="1" as="geometry">
            <mxPoint x="8" y="-1" as="offset" />
          </mxGeometry>
        </mxCell>
        <mxCell id="MTHECDVv07HErPj8eWL1-65" value="" style="endArrow=classic;html=1;rounded=0;exitX=1.006;exitY=0.913;exitDx=0;exitDy=0;exitPerimeter=0;entryX=0;entryY=0.5;entryDx=0;entryDy=0;" edge="1" parent="1" source="MTHECDVv07HErPj8eWL1-54" target="MTHECDVv07HErPj8eWL1-23">
          <mxGeometry width="50" height="50" relative="1" as="geometry">
            <mxPoint x="490" y="440" as="sourcePoint" />
            <mxPoint x="580" y="510" as="targetPoint" />
            <Array as="points">
              <mxPoint x="580" y="496" />
            </Array>
          </mxGeometry>
        </mxCell>
        <mxCell id="MTHECDVv07HErPj8eWL1-66" value="" style="endArrow=classic;html=1;rounded=0;" edge="1" parent="1">
          <mxGeometry width="50" height="50" relative="1" as="geometry">
            <mxPoint x="600" y="309.71" as="sourcePoint" />
            <mxPoint x="580" y="309.71" as="targetPoint" />
          </mxGeometry>
        </mxCell>
        <mxCell id="MTHECDVv07HErPj8eWL1-67" value="c4" style="edgeLabel;html=1;align=center;verticalAlign=middle;resizable=0;points=[];" vertex="1" connectable="0" parent="MTHECDVv07HErPj8eWL1-66">
          <mxGeometry x="-0.7869" relative="1" as="geometry">
            <mxPoint x="8" y="-1" as="offset" />
          </mxGeometry>
        </mxCell>
        <mxCell id="MTHECDVv07HErPj8eWL1-68" value="Q[-1]" style="rounded=0;whiteSpace=wrap;html=1;" vertex="1" parent="1">
          <mxGeometry x="440" y="100" width="30" height="20" as="geometry" />
        </mxCell>
        <mxCell id="MTHECDVv07HErPj8eWL1-70" value="" style="endArrow=classic;html=1;rounded=0;entryX=0.643;entryY=-0.004;entryDx=0;entryDy=0;entryPerimeter=0;" edge="1" parent="1" target="MTHECDVv07HErPj8eWL1-54">
          <mxGeometry width="50" height="50" relative="1" as="geometry">
            <mxPoint x="410" y="180" as="sourcePoint" />
            <mxPoint x="410" y="280" as="targetPoint" />
          </mxGeometry>
        </mxCell>
        <mxCell id="MTHECDVv07HErPj8eWL1-72" value="" style="endArrow=line;html=1;rounded=0;exitX=0.927;exitY=0.994;exitDx=0;exitDy=0;exitPerimeter=0;" edge="1" parent="1" source="MTHECDVv07HErPj8eWL1-2">
          <mxGeometry width="50" height="50" relative="1" as="geometry">
            <mxPoint x="409.92" y="121.22" as="sourcePoint" />
            <mxPoint x="410" y="181" as="targetPoint" />
          </mxGeometry>
        </mxCell>
        <mxCell id="MTHECDVv07HErPj8eWL1-74" value="" style="ellipse;whiteSpace=wrap;html=1;aspect=fixed;fillColor=#000000;" vertex="1" parent="1">
          <mxGeometry x="528" y="238" width="4" height="4" as="geometry" />
        </mxCell>
        <mxCell id="MTHECDVv07HErPj8eWL1-77" value="" style="ellipse;whiteSpace=wrap;html=1;aspect=fixed;fillColor=#000000;" vertex="1" parent="1">
          <mxGeometry x="407.5" y="148" width="4" height="4" as="geometry" />
        </mxCell>
        <mxCell id="MTHECDVv07HErPj8eWL1-80" value="" style="endArrow=none;html=1;rounded=0;" edge="1" parent="1">
          <mxGeometry width="50" height="50" relative="1" as="geometry">
            <mxPoint x="407" y="183" as="sourcePoint" />
            <mxPoint x="413" y="178" as="targetPoint" />
          </mxGeometry>
        </mxCell>
        <mxCell id="MTHECDVv07HErPj8eWL1-81" value="&lt;font style=&quot;font-size: 8px;&quot;&gt;3&lt;/font&gt;" style="text;html=1;align=center;verticalAlign=middle;whiteSpace=wrap;rounded=0;" vertex="1" parent="1">
          <mxGeometry x="411" y="174" width="11" height="10" as="geometry" />
        </mxCell>
        <mxCell id="MTHECDVv07HErPj8eWL1-82" value="" style="endArrow=classic;html=1;rounded=0;" edge="1" parent="1">
          <mxGeometry width="50" height="50" relative="1" as="geometry">
            <mxPoint x="431" y="290" as="sourcePoint" />
            <mxPoint x="411" y="290" as="targetPoint" />
          </mxGeometry>
        </mxCell>
        <mxCell id="MTHECDVv07HErPj8eWL1-83" value="q0" style="edgeLabel;html=1;align=center;verticalAlign=middle;resizable=0;points=[];" vertex="1" connectable="0" parent="MTHECDVv07HErPj8eWL1-82">
          <mxGeometry x="-0.7869" relative="1" as="geometry">
            <mxPoint x="8" y="-1" as="offset" />
          </mxGeometry>
        </mxCell>
        <mxCell id="MTHECDVv07HErPj8eWL1-85" value="" style="endArrow=classic;html=1;rounded=0;" edge="1" parent="1">
          <mxGeometry width="50" height="50" relative="1" as="geometry">
            <mxPoint x="478.25" y="320" as="sourcePoint" />
            <mxPoint x="453" y="320" as="targetPoint" />
            <Array as="points">
              <mxPoint x="453" y="320" />
            </Array>
          </mxGeometry>
        </mxCell>
        <mxCell id="MTHECDVv07HErPj8eWL1-86" value="c0" style="edgeLabel;html=1;align=center;verticalAlign=middle;resizable=0;points=[];" vertex="1" connectable="0" parent="MTHECDVv07HErPj8eWL1-85">
          <mxGeometry x="-0.7869" relative="1" as="geometry">
            <mxPoint x="3" y="-1" as="offset" />
          </mxGeometry>
        </mxCell>
        <mxCell id="MTHECDVv07HErPj8eWL1-88" value="1 |&amp;nbsp; CNT&amp;nbsp; | 0" style="rounded=0;whiteSpace=wrap;html=1;" vertex="1" parent="1">
          <mxGeometry x="318" y="273.5" width="70" height="20" as="geometry" />
        </mxCell>
        <mxCell id="MTHECDVv07HErPj8eWL1-93" style="edgeStyle=orthogonalEdgeStyle;rounded=0;orthogonalLoop=1;jettySize=auto;html=1;exitX=1;exitY=0.5;exitDx=0;exitDy=0;exitPerimeter=0;entryX=0.25;entryY=0;entryDx=0;entryDy=0;" edge="1" parent="1" source="MTHECDVv07HErPj8eWL1-89" target="MTHECDVv07HErPj8eWL1-54">
          <mxGeometry relative="1" as="geometry">
            <Array as="points">
              <mxPoint x="350" y="430" />
              <mxPoint x="368" y="430" />
            </Array>
          </mxGeometry>
        </mxCell>
        <mxCell id="MTHECDVv07HErPj8eWL1-89" value="" style="shape=or;whiteSpace=wrap;html=1;direction=south;" vertex="1" parent="1">
          <mxGeometry x="330" y="317.5" width="40" height="20" as="geometry" />
        </mxCell>
        <mxCell id="MTHECDVv07HErPj8eWL1-90" style="edgeStyle=orthogonalEdgeStyle;rounded=0;orthogonalLoop=1;jettySize=auto;html=1;exitX=0.116;exitY=1.006;exitDx=0;exitDy=0;entryX=0;entryY=0.75;entryDx=0;entryDy=0;entryPerimeter=0;exitPerimeter=0;" edge="1" parent="1" source="MTHECDVv07HErPj8eWL1-88" target="MTHECDVv07HErPj8eWL1-89">
          <mxGeometry relative="1" as="geometry">
            <Array as="points">
              <mxPoint x="326" y="304.5" />
              <mxPoint x="340" y="304.5" />
            </Array>
          </mxGeometry>
        </mxCell>
        <mxCell id="MTHECDVv07HErPj8eWL1-91" style="edgeStyle=orthogonalEdgeStyle;rounded=0;orthogonalLoop=1;jettySize=auto;html=1;exitX=0.862;exitY=0.985;exitDx=0;exitDy=0;entryX=0;entryY=0.25;entryDx=0;entryDy=0;entryPerimeter=0;exitPerimeter=0;" edge="1" parent="1" source="MTHECDVv07HErPj8eWL1-88" target="MTHECDVv07HErPj8eWL1-89">
          <mxGeometry relative="1" as="geometry">
            <mxPoint x="375.83" y="300.5" as="sourcePoint" />
            <mxPoint x="359.99999999999994" y="324.5" as="targetPoint" />
            <Array as="points">
              <mxPoint x="378" y="305" />
              <mxPoint x="360" y="305" />
            </Array>
          </mxGeometry>
        </mxCell>
        <mxCell id="MTHECDVv07HErPj8eWL1-94" style="edgeStyle=orthogonalEdgeStyle;rounded=0;orthogonalLoop=1;jettySize=auto;html=1;entryX=0.66;entryY=0.995;entryDx=0;entryDy=0;entryPerimeter=0;exitX=0.082;exitY=1.059;exitDx=0;exitDy=0;exitPerimeter=0;" edge="1" parent="1" source="MTHECDVv07HErPj8eWL1-12" target="MTHECDVv07HErPj8eWL1-3">
          <mxGeometry relative="1" as="geometry">
            <mxPoint x="380" y="400" as="sourcePoint" />
            <Array as="points">
              <mxPoint x="366" y="340" />
              <mxPoint x="642" y="340" />
            </Array>
          </mxGeometry>
        </mxCell>
        <mxCell id="MTHECDVv07HErPj8eWL1-95" value="" style="endArrow=none;html=1;rounded=0;" edge="1" parent="1">
          <mxGeometry width="50" height="50" relative="1" as="geometry">
            <mxPoint x="347.5" y="170" as="sourcePoint" />
            <mxPoint x="353.5" y="165" as="targetPoint" />
          </mxGeometry>
        </mxCell>
        <mxCell id="MTHECDVv07HErPj8eWL1-96" value="&lt;font style=&quot;font-size: 8px;&quot;&gt;32&lt;/font&gt;" style="text;html=1;align=center;verticalAlign=middle;whiteSpace=wrap;rounded=0;" vertex="1" parent="1">
          <mxGeometry x="352.5" y="162" width="11" height="10" as="geometry" />
        </mxCell>
        <mxCell id="MTHECDVv07HErPj8eWL1-98" value="" style="endArrow=none;html=1;rounded=0;" edge="1" parent="1">
          <mxGeometry width="50" height="50" relative="1" as="geometry">
            <mxPoint x="639.75" y="265" as="sourcePoint" />
            <mxPoint x="645.75" y="260" as="targetPoint" />
          </mxGeometry>
        </mxCell>
        <mxCell id="MTHECDVv07HErPj8eWL1-99" value="&lt;font style=&quot;font-size: 8px;&quot;&gt;32&lt;/font&gt;" style="text;html=1;align=center;verticalAlign=middle;whiteSpace=wrap;rounded=0;" vertex="1" parent="1">
          <mxGeometry x="644.75" y="256" width="11" height="10" as="geometry" />
        </mxCell>
        <mxCell id="MTHECDVv07HErPj8eWL1-100" value="" style="endArrow=none;html=1;rounded=0;exitX=0.856;exitY=0.983;exitDx=0;exitDy=0;exitPerimeter=0;" edge="1" parent="1" source="MTHECDVv07HErPj8eWL1-2">
          <mxGeometry width="50" height="50" relative="1" as="geometry">
            <mxPoint x="385" y="182" as="sourcePoint" />
            <mxPoint x="410" y="150" as="targetPoint" />
            <Array as="points">
              <mxPoint x="400" y="150" />
            </Array>
          </mxGeometry>
        </mxCell>
        <mxCell id="MTHECDVv07HErPj8eWL1-101" value="" style="endArrow=none;html=1;rounded=0;entryX=0.5;entryY=1;entryDx=0;entryDy=0;" edge="1" parent="1" target="MTHECDVv07HErPj8eWL1-68">
          <mxGeometry width="50" height="50" relative="1" as="geometry">
            <mxPoint x="410" y="150" as="sourcePoint" />
            <mxPoint x="450" y="110" as="targetPoint" />
            <Array as="points">
              <mxPoint x="455" y="150" />
            </Array>
          </mxGeometry>
        </mxCell>
        <mxCell id="MTHECDVv07HErPj8eWL1-108" value="" style="endArrow=classic;html=1;rounded=0;" edge="1" parent="1">
          <mxGeometry width="50" height="50" relative="1" as="geometry">
            <mxPoint x="320" y="460" as="sourcePoint" />
            <mxPoint x="340" y="460" as="targetPoint" />
          </mxGeometry>
        </mxCell>
        <mxCell id="MTHECDVv07HErPj8eWL1-109" value="bgn" style="edgeLabel;html=1;align=center;verticalAlign=middle;resizable=0;points=[];" vertex="1" connectable="0" parent="MTHECDVv07HErPj8eWL1-108">
          <mxGeometry x="0.3385" relative="1" as="geometry">
            <mxPoint x="-24" y="-1" as="offset" />
          </mxGeometry>
        </mxCell>
        <mxCell id="MTHECDVv07HErPj8eWL1-110" value="" style="endArrow=classic;html=1;rounded=0;" edge="1" parent="1">
          <mxGeometry width="50" height="50" relative="1" as="geometry">
            <mxPoint x="320" y="471" as="sourcePoint" />
            <mxPoint x="340" y="471" as="targetPoint" />
          </mxGeometry>
        </mxCell>
        <mxCell id="MTHECDVv07HErPj8eWL1-111" value="clk" style="edgeLabel;html=1;align=center;verticalAlign=middle;resizable=0;points=[];" vertex="1" connectable="0" parent="MTHECDVv07HErPj8eWL1-110">
          <mxGeometry x="0.3385" relative="1" as="geometry">
            <mxPoint x="-22" y="-1" as="offset" />
          </mxGeometry>
        </mxCell>
        <mxCell id="MTHECDVv07HErPj8eWL1-112" value="" style="endArrow=classic;html=1;rounded=0;" edge="1" parent="1">
          <mxGeometry width="50" height="50" relative="1" as="geometry">
            <mxPoint x="320" y="483" as="sourcePoint" />
            <mxPoint x="340" y="483" as="targetPoint" />
          </mxGeometry>
        </mxCell>
        <mxCell id="MTHECDVv07HErPj8eWL1-113" value="rst_b" style="edgeLabel;html=1;align=center;verticalAlign=middle;resizable=0;points=[];" vertex="1" connectable="0" parent="MTHECDVv07HErPj8eWL1-112">
          <mxGeometry x="0.3385" relative="1" as="geometry">
            <mxPoint x="-26" y="-1" as="offset" />
          </mxGeometry>
        </mxCell>
        <mxCell id="MTHECDVv07HErPj8eWL1-116" value="" style="endArrow=classic;html=1;rounded=0;" edge="1" parent="1">
          <mxGeometry width="50" height="50" relative="1" as="geometry">
            <mxPoint x="85" y="239.76" as="sourcePoint" />
            <mxPoint x="105" y="239.76" as="targetPoint" />
            <Array as="points">
              <mxPoint x="105" y="239.76" />
            </Array>
          </mxGeometry>
        </mxCell>
        <mxCell id="MTHECDVv07HErPj8eWL1-117" value="c7" style="edgeLabel;html=1;align=center;verticalAlign=middle;resizable=0;points=[];" vertex="1" connectable="0" parent="MTHECDVv07HErPj8eWL1-116">
          <mxGeometry x="-0.7869" relative="1" as="geometry">
            <mxPoint x="-8" y="-1" as="offset" />
          </mxGeometry>
        </mxCell>
        <mxCell id="MTHECDVv07HErPj8eWL1-118" value="" style="endArrow=classic;html=1;rounded=0;" edge="1" parent="1">
          <mxGeometry width="50" height="50" relative="1" as="geometry">
            <mxPoint x="180" y="310" as="sourcePoint" />
            <mxPoint x="180" y="290" as="targetPoint" />
          </mxGeometry>
        </mxCell>
        <mxCell id="MTHECDVv07HErPj8eWL1-119" value="c2" style="edgeLabel;html=1;align=center;verticalAlign=middle;resizable=0;points=[];" vertex="1" connectable="0" parent="MTHECDVv07HErPj8eWL1-118">
          <mxGeometry x="-0.4333" y="2" relative="1" as="geometry">
            <mxPoint x="1" y="10" as="offset" />
          </mxGeometry>
        </mxCell>
        <mxCell id="MTHECDVv07HErPj8eWL1-120" value="" style="endArrow=classic;html=1;rounded=0;entryX=0.662;entryY=0.005;entryDx=0;entryDy=0;entryPerimeter=0;" edge="1" parent="1" target="MTHECDVv07HErPj8eWL1-11">
          <mxGeometry width="50" height="50" relative="1" as="geometry">
            <mxPoint x="335" y="120" as="sourcePoint" />
            <mxPoint x="697.5999999999999" y="356.85" as="targetPoint" />
            <Array as="points">
              <mxPoint x="335" y="167.37" />
              <mxPoint x="300" y="167.37" />
              <mxPoint x="300" y="347.37" />
              <mxPoint x="601" y="350" />
            </Array>
          </mxGeometry>
        </mxCell>
        <mxCell id="MTHECDVv07HErPj8eWL1-122" value="" style="endArrow=none;html=1;rounded=0;" edge="1" parent="1">
          <mxGeometry width="50" height="50" relative="1" as="geometry">
            <mxPoint x="332" y="145" as="sourcePoint" />
            <mxPoint x="338" y="140" as="targetPoint" />
          </mxGeometry>
        </mxCell>
        <mxCell id="MTHECDVv07HErPj8eWL1-123" value="&lt;font style=&quot;font-size: 8px;&quot;&gt;32&lt;/font&gt;" style="text;html=1;align=center;verticalAlign=middle;whiteSpace=wrap;rounded=0;" vertex="1" parent="1">
          <mxGeometry x="321" y="136" width="11" height="10" as="geometry" />
        </mxCell>
        <mxCell id="MTHECDVv07HErPj8eWL1-125" value="" style="endArrow=classic;html=1;rounded=0;" edge="1" parent="1">
          <mxGeometry width="50" height="50" relative="1" as="geometry">
            <mxPoint x="667.88" y="296" as="sourcePoint" />
            <mxPoint x="642.63" y="296" as="targetPoint" />
            <Array as="points">
              <mxPoint x="642.63" y="296" />
            </Array>
          </mxGeometry>
        </mxCell>
        <mxCell id="MTHECDVv07HErPj8eWL1-126" value="c0" style="edgeLabel;html=1;align=center;verticalAlign=middle;resizable=0;points=[];" vertex="1" connectable="0" parent="MTHECDVv07HErPj8eWL1-125">
          <mxGeometry x="-0.7869" relative="1" as="geometry">
            <mxPoint x="3" y="-1" as="offset" />
          </mxGeometry>
        </mxCell>
        <mxCell id="MTHECDVv07HErPj8eWL1-127" style="edgeStyle=orthogonalEdgeStyle;rounded=0;orthogonalLoop=1;jettySize=auto;html=1;exitX=1;exitY=0.25;exitDx=0;exitDy=0;" edge="1" parent="1">
          <mxGeometry relative="1" as="geometry">
            <mxPoint x="299.9900000000001" y="303.1521739130435" as="targetPoint" />
            <mxPoint x="269.9899999999999" y="303" as="sourcePoint" />
          </mxGeometry>
        </mxCell>
        <mxCell id="MTHECDVv07HErPj8eWL1-128" value="c7" style="edgeLabel;html=1;align=center;verticalAlign=middle;resizable=0;points=[];" vertex="1" connectable="0" parent="MTHECDVv07HErPj8eWL1-127">
          <mxGeometry x="0.585" y="-1" relative="1" as="geometry">
            <mxPoint x="-22" y="-2" as="offset" />
          </mxGeometry>
        </mxCell>
        <mxCell id="MTHECDVv07HErPj8eWL1-131" value="" style="endArrow=classic;html=1;rounded=0;entryX=0.428;entryY=0.002;entryDx=0;entryDy=0;entryPerimeter=0;" edge="1" parent="1" target="MTHECDVv07HErPj8eWL1-1">
          <mxGeometry width="50" height="50" relative="1" as="geometry">
            <mxPoint x="130" y="80" as="sourcePoint" />
            <mxPoint x="370" y="60" as="targetPoint" />
          </mxGeometry>
        </mxCell>
        <mxCell id="MTHECDVv07HErPj8eWL1-132" value="c0" style="edgeLabel;html=1;align=center;verticalAlign=middle;resizable=0;points=[];" vertex="1" connectable="0" parent="MTHECDVv07HErPj8eWL1-131">
          <mxGeometry x="-0.7598" relative="1" as="geometry">
            <mxPoint y="-5" as="offset" />
          </mxGeometry>
        </mxCell>
        <mxCell id="MTHECDVv07HErPj8eWL1-133" value="" style="endArrow=classic;html=1;rounded=0;entryX=0.428;entryY=0.002;entryDx=0;entryDy=0;entryPerimeter=0;" edge="1" parent="1">
          <mxGeometry width="50" height="50" relative="1" as="geometry">
            <mxPoint x="160" y="80" as="sourcePoint" />
            <mxPoint x="160" y="100" as="targetPoint" />
          </mxGeometry>
        </mxCell>
        <mxCell id="MTHECDVv07HErPj8eWL1-134" value="c5" style="edgeLabel;html=1;align=center;verticalAlign=middle;resizable=0;points=[];" vertex="1" connectable="0" parent="MTHECDVv07HErPj8eWL1-133">
          <mxGeometry x="-0.7598" relative="1" as="geometry">
            <mxPoint y="-5" as="offset" />
          </mxGeometry>
        </mxCell>
        <mxCell id="MTHECDVv07HErPj8eWL1-135" value="" style="endArrow=classic;html=1;rounded=0;entryX=0.428;entryY=0.002;entryDx=0;entryDy=0;entryPerimeter=0;" edge="1" parent="1">
          <mxGeometry width="50" height="50" relative="1" as="geometry">
            <mxPoint x="340" y="80" as="sourcePoint" />
            <mxPoint x="340" y="100" as="targetPoint" />
          </mxGeometry>
        </mxCell>
        <mxCell id="MTHECDVv07HErPj8eWL1-136" value="c5" style="edgeLabel;html=1;align=center;verticalAlign=middle;resizable=0;points=[];" vertex="1" connectable="0" parent="MTHECDVv07HErPj8eWL1-135">
          <mxGeometry x="-0.7598" relative="1" as="geometry">
            <mxPoint y="-5" as="offset" />
          </mxGeometry>
        </mxCell>
        <mxCell id="MTHECDVv07HErPj8eWL1-137" value="" style="endArrow=classic;html=1;rounded=0;entryX=0.428;entryY=0.002;entryDx=0;entryDy=0;entryPerimeter=0;" edge="1" parent="1">
          <mxGeometry width="50" height="50" relative="1" as="geometry">
            <mxPoint x="332" y="253.5" as="sourcePoint" />
            <mxPoint x="332" y="273.5" as="targetPoint" />
          </mxGeometry>
        </mxCell>
        <mxCell id="MTHECDVv07HErPj8eWL1-138" value="c6" style="edgeLabel;html=1;align=center;verticalAlign=middle;resizable=0;points=[];" vertex="1" connectable="0" parent="MTHECDVv07HErPj8eWL1-137">
          <mxGeometry x="-0.7598" relative="1" as="geometry">
            <mxPoint y="-5" as="offset" />
          </mxGeometry>
        </mxCell>
        <mxCell id="MTHECDVv07HErPj8eWL1-139" value="" style="endArrow=classic;html=1;rounded=0;entryX=1;entryY=0.5;entryDx=0;entryDy=0;" edge="1" parent="1" target="MTHECDVv07HErPj8eWL1-88">
          <mxGeometry width="50" height="50" relative="1" as="geometry">
            <mxPoint x="400" y="300" as="sourcePoint" />
            <mxPoint x="410" y="240" as="targetPoint" />
            <Array as="points">
              <mxPoint x="400" y="284" />
            </Array>
          </mxGeometry>
        </mxCell>
        <mxCell id="MTHECDVv07HErPj8eWL1-140" value="c0" style="edgeLabel;html=1;align=center;verticalAlign=middle;resizable=0;points=[];" vertex="1" connectable="0" parent="MTHECDVv07HErPj8eWL1-139">
          <mxGeometry x="-0.8033" relative="1" as="geometry">
            <mxPoint x="-1" y="1" as="offset" />
          </mxGeometry>
        </mxCell>
      </root>
    </mxGraphModel>
  </diagram>
</mxfile>
